<?xml version="1.0" encoding="UTF-8" standalone="no"?>
<!-- Created with Inkscape (http://www.inkscape.org/) -->

<svg
   xmlns:dc="http://purl.org/dc/elements/1.1/"
   xmlns:cc="http://creativecommons.org/ns#"
   xmlns:rdf="http://www.w3.org/1999/02/22-rdf-syntax-ns#"
   xmlns:svg="http://www.w3.org/2000/svg"
   xmlns="http://www.w3.org/2000/svg"
   xmlns:sodipodi="http://sodipodi.sourceforge.net/DTD/sodipodi-0.dtd"
   xmlns:inkscape="http://www.inkscape.org/namespaces/inkscape"
   version="1.1"
   id="svg10"
   width="20"
   height="100"
   viewBox="0 0 20 99.999998"
   sodipodi:docname="paddle.svg"
   inkscape:version="0.92.4 (5da689c313, 2019-01-14)">
  <metadata
     id="metadata16">
    <rdf:RDF>
      <cc:Work
         rdf:about="">
        <dc:format>image/svg+xml</dc:format>
        <dc:type
           rdf:resource="http://purl.org/dc/dcmitype/StillImage" />
        <dc:title></dc:title>
      </cc:Work>
    </rdf:RDF>
  </metadata>
  <defs
     id="defs14" />
  <sodipodi:namedview
     pagecolor="#ffffff"
     bordercolor="#666666"
     borderopacity="1"
     objecttolerance="10"
     gridtolerance="10"
     guidetolerance="10"
     inkscape:pageopacity="0"
     inkscape:pageshadow="2"
     inkscape:window-width="1366"
     inkscape:window-height="705"
     id="namedview12"
     showgrid="true"
     units="px"
     inkscape:zoom="7.1276363"
     inkscape:cx="30.592128"
     inkscape:cy="89.34001"
     inkscape:window-x="-8"
     inkscape:window-y="-8"
     inkscape:window-maximized="1"
     inkscape:current-layer="svg10"
     inkscape:snap-grids="true"
     inkscape:snap-page="false">
    <inkscape:grid
       type="xygrid"
       id="grid24"
       enabled="true"
       spacingx="5"
       spacingy="5" />
    <inkscape:grid
       type="xygrid"
       id="grid3729"
       enabled="false" />
  </sodipodi:namedview>
  <rect
     style="fill:#d40000;fill-rule:evenodd"
     id="rect3731-3-2"
     width="5"
     height="5"
     x="0"
     y="65" />
  <rect
     style="fill:#d40000;fill-rule:evenodd"
     id="rect3731-3-2-4"
     width="5"
     height="5"
     x="0"
     y="75" />
  <rect
     style="fill:#d40000;fill-rule:evenodd"
     id="rect3731-3-2-5"
     width="5"
     height="5"
     x="0"
     y="85" />
  <rect
     style="fill:#d40000;fill-rule:evenodd"
     id="rect3731-3-2-42"
     width="5"
     height="5"
     x="0"
     y="95" />
  <rect
     style="fill:#d40000;fill-rule:evenodd"
     id="rect3731-3-2-3"
     width="5"
     height="5"
     x="0"
     y="55" />
  <rect
     style="fill:#d40000;fill-rule:evenodd"
     id="rect3731-3-2-6"
     width="5"
     height="5"
     x="0"
     y="45" />
  <rect
     style="fill:#d40000;fill-rule:evenodd"
     id="rect3731-3-2-9"
     width="5"
     height="5"
     x="0"
     y="35" />
  <rect
     style="fill:#d40000;fill-rule:evenodd"
     id="rect3731-3-2-7"
     width="5"
     height="5"
     x="0"
     y="25" />
  <rect
     style="fill:#d40000;fill-rule:evenodd"
     id="rect3731-3-2-76"
     width="5"
     height="5"
     x="0"
     y="15.000001" />
  <rect
     style="fill:#d40000;fill-rule:evenodd"
     id="rect3731-3-2-8"
     width="5"
     height="5"
     x="0"
     y="5" />
  <rect
     style="fill:#aa0000;fill-rule:evenodd"
     id="rect3731-3-2-0"
     width="5"
     height="5"
     x="5"
     y="30" />
  <rect
     style="fill:#aa0000;fill-rule:evenodd"
     id="rect3731-3-2-77"
     width="5"
     height="5"
     x="5"
     y="20" />
  <rect
     style="fill:#aa0000;fill-rule:evenodd"
     id="rect3731-3-2-87"
     width="5"
     height="5"
     x="5"
     y="10" />
  <rect
     style="fill:#aa0000;fill-rule:evenodd"
     id="rect3731-3-2-81"
     width="5"
     height="5"
     x="5"
     y="40" />
  <rect
     style="fill:#aa0000;fill-rule:evenodd"
     id="rect3731-3-2-50"
     width="5"
     height="5"
     x="5"
     y="0" />
  <rect
     style="fill:#aa0000;fill-rule:evenodd"
     id="rect3731-3-2-98"
     width="5"
     height="5"
     x="5"
     y="50" />
  <rect
     style="fill:#aa0000;fill-rule:evenodd"
     id="rect3731-3-2-79"
     width="5"
     height="5"
     x="5"
     y="70" />
  <rect
     style="fill:#aa0000;fill-rule:evenodd"
     id="rect3731-3-2-59"
     width="5"
     height="5"
     x="5"
     y="60" />
  <rect
     style="fill:#aa0000;fill-rule:evenodd"
     id="rect3731-3-2-54"
     width="5"
     height="5"
     x="5"
     y="80" />
  <rect
     style="fill:#aa0000;fill-rule:evenodd"
     id="rect3731-3-2-03"
     width="5"
     height="5"
     x="5"
     y="90" />
  <rect
     style="fill:#800000;fill-rule:evenodd"
     id="rect3731-3-2-1"
     width="5"
     height="5"
     x="10"
     y="95" />
  <rect
     style="fill:#800000;fill-rule:evenodd"
     id="rect3731-3-2-49"
     width="5"
     height="5"
     x="10"
     y="85" />
  <rect
     style="fill:#800000;fill-rule:evenodd"
     id="rect3731-3-2-2"
     width="5"
     height="5"
     x="10"
     y="75" />
  <rect
     style="fill:#800000;fill-rule:evenodd"
     id="rect3731-3-2-48"
     width="5"
     height="5"
     x="10"
     y="65" />
  <rect
     style="fill:#800000;fill-rule:evenodd"
     id="rect3731-3-2-07"
     width="5"
     height="5"
     x="10"
     y="55" />
  <rect
     style="fill:#800000;fill-rule:evenodd"
     id="rect3731-3-2-97"
     width="5"
     height="5"
     x="10"
     y="45" />
  <rect
     style="fill:#800000;fill-rule:evenodd"
     id="rect3731-3-2-00"
     width="5"
     height="5"
     x="10"
     y="35" />
  <rect
     style="fill:#800000;fill-rule:evenodd"
     id="rect3731-3-2-57"
     width="5"
     height="5"
     x="10"
     y="25" />
  <rect
     style="fill:#800000;fill-rule:evenodd"
     id="rect3731-3-2-506"
     width="5"
     height="5"
     x="10"
     y="15" />
  <rect
     style="fill:#800000;fill-rule:evenodd"
     id="rect3731-3-2-70"
     width="5"
     height="5"
     x="10"
     y="5" />
  <rect
     style="fill:#550000;fill-rule:evenodd"
     id="rect3731-3-2-033"
     width="5"
     height="5"
     x="15"
     y="10" />
  <rect
     style="fill:#550000;fill-rule:evenodd"
     id="rect3731-3-2-34"
     width="5"
     height="5"
     x="15"
     y="0" />
  <rect
     style="fill:#550000;fill-rule:evenodd"
     id="rect3731-3-2-61"
     width="5"
     height="5"
     x="15"
     y="20" />
  <rect
     style="fill:#550000;fill-rule:evenodd"
     id="rect3731-3-2-11"
     width="5"
     height="5"
     x="15"
     y="30" />
  <rect
     style="fill:#550000;fill-rule:evenodd"
     id="rect3731-3-2-90"
     width="5"
     height="5"
     x="15"
     y="40" />
  <rect
     style="fill:#550000;fill-rule:evenodd"
     id="rect3731-3-2-84"
     width="5"
     height="5"
     x="15"
     y="50" />
  <rect
     style="fill:#550000;fill-rule:evenodd"
     id="rect3731-3-2-04"
     width="5"
     height="5"
     x="15"
     y="60" />
  <rect
     style="fill:#550000;fill-rule:evenodd"
     id="rect3731-3-2-488"
     width="5"
     height="5"
     x="15"
     y="70" />
  <rect
     style="fill:#550000;fill-rule:evenodd"
     id="rect3731-3-2-83"
     width="5"
     height="5"
     x="15"
     y="80" />
  <rect
     style="fill:#550000;fill-rule:evenodd"
     id="rect3731-3-2-06"
     width="5"
     height="5"
     x="15"
     y="90" />
  <rect
     style="fill:#ffff00;fill-rule:evenodd"
     id="rect3731-3-2-34-9"
     width="5"
     height="5"
     x="0"
     y="0" />
  <rect
     style="fill:#ffff00;fill-rule:evenodd"
     id="rect3731-3-2-34-9-8"
     width="5"
     height="5"
     x="0"
     y="10" />
  <rect
     style="fill:#ffff00;fill-rule:evenodd"
     id="rect3731-3-2-34-9-2"
     width="5"
     height="5"
     x="0"
     y="20" />
  <rect
     style="fill:#ffff00;fill-rule:evenodd"
     id="rect3731-3-2-34-9-1"
     width="5"
     height="5"
     x="0"
     y="30" />
  <rect
     style="fill:#ffff00;fill-rule:evenodd"
     id="rect3731-3-2-34-9-4"
     width="5"
     height="5"
     x="0"
     y="40" />
  <rect
     style="fill:#ffff00;fill-rule:evenodd"
     id="rect3731-3-2-34-9-5"
     width="5"
     height="5"
     x="0"
     y="50" />
  <rect
     style="fill:#ffff00;fill-rule:evenodd"
     id="rect3731-3-2-34-9-7"
     width="5"
     height="5"
     x="0"
     y="60" />
  <rect
     style="fill:#ffff00;fill-rule:evenodd"
     id="rect3731-3-2-34-9-21"
     width="5"
     height="5"
     x="0"
     y="70" />
  <rect
     style="fill:#ffff00;fill-rule:evenodd"
     id="rect3731-3-2-34-9-18"
     width="5"
     height="5"
     x="0"
     y="80" />
  <rect
     style="fill:#ffff00;fill-rule:evenodd"
     id="rect3731-3-2-34-9-74"
     width="5"
     height="5"
     x="0"
     y="90" />
  <rect
     style="fill:#ffcc00;fill-rule:evenodd"
     id="rect3731-3-2-34-9-9"
     width="5"
     height="5"
     x="5"
     y="95" />
  <rect
     style="fill:#ffcc00;fill-rule:evenodd"
     id="rect3731-3-2-34-9-3"
     width="5"
     height="5"
     x="5"
     y="85" />
  <rect
     style="fill:#d4aa00;fill-rule:evenodd"
     id="rect3731-3-2-34-9-14"
     width="5"
     height="5"
     x="10"
     y="90" />
  <rect
     style="fill:#aa8800;fill-rule:evenodd"
     id="rect3731-3-2-34-9-28"
     width="5"
     height="5"
     x="15"
     y="95" />
  <rect
     style="fill:#aa8800;fill-rule:evenodd"
     id="rect3731-3-2-34-9-92"
     width="5"
     height="5"
     x="15"
     y="85" />
  <rect
     style="fill:#d4aa00;fill-rule:evenodd"
     id="rect3731-3-2-34-9-58"
     width="5"
     height="5"
     x="10"
     y="80" />
  <rect
     style="fill:#aa8800;fill-rule:evenodd"
     id="rect3731-3-2-34-9-99"
     width="5"
     height="5"
     x="15"
     y="75" />
  <rect
     style="fill:#ffcc00;fill-rule:evenodd"
     id="rect3731-3-2-34-9-54"
     width="5"
     height="5"
     x="5"
     y="75" />
  <rect
     style="fill:#d4aa00;fill-rule:evenodd"
     id="rect3731-3-2-34-9-42"
     width="5"
     height="5"
     x="10"
     y="70" />
  <rect
     style="fill:#ffcc00;fill-rule:evenodd"
     id="rect3731-3-2-34-9-36"
     width="5"
     height="5"
     x="5"
     y="65" />
  <rect
     style="fill:#aa8800;fill-rule:evenodd"
     id="rect3731-3-2-34-9-16"
     width="5"
     height="5"
     x="15"
     y="65" />
  <rect
     style="fill:#ffcc00;fill-rule:evenodd"
     id="rect3731-3-2-34-9-39"
     width="5"
     height="5"
     x="5"
     y="55" />
  <rect
     style="fill:#d4aa00;fill-rule:evenodd"
     id="rect3731-3-2-34-9-49"
     width="5"
     height="5"
     x="10"
     y="60" />
  <rect
     style="fill:#aa8800;fill-rule:evenodd"
     id="rect3731-3-2-34-9-215"
     width="5"
     height="5"
     x="15"
     y="55" />
  <rect
     style="fill:#d4aa00;fill-rule:evenodd"
     id="rect3731-3-2-34-9-76"
     width="5"
     height="5"
     x="10"
     y="50" />
  <rect
     style="fill:#aa8800;fill-rule:evenodd"
     id="rect3731-3-2-34-9-98"
     width="5"
     height="5"
     x="15"
     y="45" />
  <rect
     style="fill:#ffcc00;fill-rule:evenodd"
     id="rect3731-3-2-34-9-397"
     width="5"
     height="5"
     x="5"
     y="-50"
     transform="scale(1,-1)" />
  <rect
     style="fill:#aa8800;fill-rule:evenodd"
     id="rect3731-3-2-34-9-361"
     width="5"
     height="5"
     x="15"
     y="35" />
  <rect
     style="fill:#d4aa00;fill-rule:evenodd"
     id="rect3731-3-2-34-9-56"
     width="5"
     height="5"
     x="10"
     y="-45"
     transform="scale(1,-1)" />
  <rect
     style="fill:#ffcc00;fill-rule:evenodd"
     id="rect3731-3-2-34-9-0"
     width="5"
     height="5"
     x="5"
     y="35" />
  <rect
     style="fill:#d4aa00;fill-rule:evenodd"
     id="rect3731-3-2-34-9-40"
     width="5"
     height="5"
     x="10"
     y="30" />
  <rect
     style="fill:#aa8800;fill-rule:evenodd"
     id="rect3731-3-2-34-9-88"
     width="5"
     height="5"
     x="15"
     y="25" />
  <rect
     style="fill:#ffcc00;fill-rule:evenodd"
     id="rect3731-3-2-34-9-80"
     width="5"
     height="5"
     x="5"
     y="-30"
     transform="scale(1,-1)" />
  <rect
     style="fill:#d4aa00;fill-rule:evenodd"
     id="rect3731-3-2-34-9-05"
     width="5"
     height="5"
     x="10"
     y="20" />
  <rect
     style="fill:#aa8800;fill-rule:evenodd"
     id="rect3731-3-2-34-9-563"
     width="5"
     height="5"
     x="15"
     y="15" />
  <rect
     style="fill:#ffcc00;fill-rule:evenodd"
     id="rect3731-3-2-34-9-147"
     width="5"
     height="5"
     x="5"
     y="15" />
  <rect
     style="fill:#d4aa00;fill-rule:evenodd"
     id="rect3731-3-2-34-9-09"
     width="5"
     height="5"
     x="10"
     y="10" />
  <rect
     style="fill:#aa8800;fill-rule:evenodd"
     id="rect3731-3-2-34-9-70"
     width="5"
     height="5"
     x="15"
     y="5" />
  <rect
     style="fill:#d4aa00;fill-rule:evenodd"
     id="rect3731-3-2-34-9-6"
     width="5"
     height="5"
     x="10"
     y="0" />
  <rect
     style="fill:#ffcc00;fill-rule:evenodd"
     id="rect3731-3-2-34-9-29"
     width="5"
     height="5"
     x="5"
     y="5" />
</svg>
